<svg width="1617" height="1603" viewBox="0 0 1617 1603" fill="none" xmlns="http://www.w3.org/2000/svg">
<circle cx="999.411" cy="568.267" r="414.5" transform="rotate(30 999.411 568.267)" stroke="white" stroke-opacity="0.8" stroke-width="3"/>
<circle cx="1106.94" cy="598.018" r="371.5" transform="rotate(30 1106.94 598.018)" stroke="white" stroke-opacity="0.8" stroke-width="3"/>
<path d="M769.887 678.815C965.012 791.47 1030.45 1043.51 915.976 1241.78C801.504 1440.05 550.512 1509.4 355.387 1396.75C160.263 1284.09 94.8268 1032.05 209.299 833.782C323.771 635.511 574.763 566.16 769.887 678.815Z" stroke="white" stroke-opacity="0.8" stroke-width="3"/>
<path d="M766.667 956.393C886.221 1025.42 926.324 1179.86 856.173 1301.36C786.022 1422.87 632.221 1465.36 512.667 1396.33C393.113 1327.31 353.009 1172.87 423.16 1051.36C493.312 929.858 647.113 887.368 766.667 956.393Z" stroke="white" stroke-opacity="0.8" stroke-width="3"/>
<circle cx="795.585" cy="799.306" r="18" transform="rotate(30 795.585 799.306)" fill="#D9D9D9" fill-opacity="0.8"/>
<circle cx="795.585" cy="799.306" r="16.5" transform="rotate(30 795.585 799.306)" stroke="white" stroke-opacity="0.8" stroke-width="3"/>
<circle cx="873.352" cy="1078.61" r="18" transform="rotate(30 873.352 1078.61)" fill="#D9D9D9" fill-opacity="0.8"/>
<circle cx="873.352" cy="1078.61" r="16.5" transform="rotate(30 873.352 1078.61)" stroke="white" stroke-opacity="0.8" stroke-width="3"/>
<circle cx="426.612" cy="1042.39" r="18" transform="rotate(30 426.612 1042.39)" fill="#D9D9D9" fill-opacity="0.8"/>
<circle cx="426.612" cy="1042.39" r="16.5" transform="rotate(30 426.612 1042.39)" stroke="white" stroke-opacity="0.8" stroke-width="3"/>
<path d="M851.972 740.64L391.359 1215.45" stroke="white" stroke-opacity="0.8" stroke-width="3"/>
</svg>
