<svg width="1312" height="1279" viewBox="0 0 1312 1279" fill="none" xmlns="http://www.w3.org/2000/svg">
  <circle cx="999.411" cy="244.267" r="414.5" transform="rotate(30 999.411 244.267)" stroke="white" stroke-opacity="0.8" stroke-width="3"/>
  <circle cx="1106.94" cy="274.018" r="371.5" transform="rotate(30 1106.94 274.018)" stroke="white" stroke-opacity="0.8" stroke-width="3"/>
  <path d="M769.887 354.815C965.012 467.47 1030.45 719.511 915.976 917.782C801.504 1116.05 550.512 1185.4 355.387 1072.75C160.263 960.095 94.8269 708.054 209.299 509.782C323.771 311.511 574.763 242.16 769.887 354.815Z" stroke="white" stroke-opacity="0.8" stroke-width="3"/>
  <path d="M766.667 632.393C886.221 701.417 926.324 855.858 856.173 977.363C786.022 1098.87 632.221 1141.36 512.667 1072.33C393.113 1003.31 353.009 848.869 423.16 727.363C493.312 605.858 647.113 563.368 766.667 632.393Z" stroke="white" stroke-opacity="0.8" stroke-width="3"/>
  <circle cx="795.585" cy="475.306" r="18" transform="rotate(30 795.585 475.306)" fill="#D9D9D9" fill-opacity="0.8"/>
  <circle cx="795.585" cy="475.306" r="16.5" transform="rotate(30 795.585 475.306)" stroke="white" stroke-opacity="0.8" stroke-width="3"/>
  <circle cx="873.352" cy="754.609" r="18" transform="rotate(30 873.352 754.609)" fill="#D9D9D9" fill-opacity="0.8"/>
  <circle cx="873.352" cy="754.609" r="16.5" transform="rotate(30 873.352 754.609)" stroke="white" stroke-opacity="0.8" stroke-width="3"/>
  <circle cx="426.612" cy="718.386" r="18" transform="rotate(30 426.612 718.386)" fill="#D9D9D9" fill-opacity="0.8"/>
  <circle cx="426.612" cy="718.386" r="16.5" transform="rotate(30 426.612 718.386)" stroke="white" stroke-opacity="0.8" stroke-width="3"/>
  <path d="M851.972 416.64L391.359 891.445" stroke="white" stroke-opacity="0.8" stroke-width="3"/>
</svg>
