<svg width="1332" height="1304" viewBox="0 0 1332 1304" fill="none" xmlns="http://www.w3.org/2000/svg">
<path d="M702.036 589.943L241.423 1064.75M1209.74 625.57C1094.87 824.539 840.445 892.711 641.475 777.836C442.506 662.961 374.334 408.539 489.209 209.57C604.084 10.6 858.506 -57.5721 1057.48 57.3031C1256.45 172.178 1324.62 426.6 1209.74 625.57ZM1280.03 633.821C1177.03 812.224 948.909 873.349 770.506 770.348C592.103 667.347 530.977 439.224 633.978 260.821C736.979 82.4177 965.103 21.2923 1143.51 124.293C1321.91 227.294 1383.03 455.418 1280.03 633.821ZM767.338 1091.84C652.463 1290.81 400.561 1360.43 204.701 1247.35C8.83981 1134.27 -56.812 881.305 58.0632 682.335C172.938 483.366 424.84 413.738 620.701 526.819C816.561 639.899 882.213 892.866 767.338 1091.84ZM707.536 1151.42C636.981 1273.62 482.271 1316.39 361.98 1246.94C241.69 1177.49 201.371 1022.12 271.925 899.916C342.479 777.713 497.19 734.947 617.48 804.397C737.771 873.847 778.09 1029.21 707.536 1151.42ZM661.236 657.609C656.266 666.219 645.257 669.168 636.648 664.198C628.038 659.227 625.089 648.219 630.059 639.609C635.03 631 646.038 628.05 654.648 633.021C663.257 637.991 666.207 649 661.236 657.609ZM739.004 936.913C734.033 945.522 723.025 948.472 714.415 943.501C705.806 938.53 702.856 927.522 707.827 918.913C712.797 910.303 723.806 907.354 732.415 912.324C741.025 917.295 743.974 928.303 739.004 936.913ZM292.264 900.689C287.293 909.299 276.284 912.248 267.675 907.278C259.066 902.307 256.116 891.299 261.087 882.689C266.057 874.08 277.066 871.13 285.675 876.101C294.284 881.072 297.234 892.08 292.264 900.689Z" stroke="white" stroke-width="3"/>
</svg>
