<svg width="1334" height="994" viewBox="0 0 1334 994" fill="none" xmlns="http://www.w3.org/2000/svg">
<path d="M649.377 132.72C642.12 138.139 631.844 136.649 626.425 129.393C621.005 122.136 622.495 111.86 629.752 106.441C637.009 101.021 647.285 102.511 652.704 109.768C658.123 117.025 656.633 127.301 649.377 132.72Z" fill="#FFA361"/>
<path d="M668.989 513.765C661.732 519.185 651.456 517.695 646.037 510.438C640.617 503.181 642.107 492.905 649.364 487.486C656.621 482.067 666.897 483.557 672.316 490.813C677.735 498.07 676.245 508.346 668.989 513.765Z" fill="#FFA361"/>
<path d="M633.645 775.533C626.388 780.952 616.112 779.462 610.693 772.206C605.274 764.949 606.764 754.673 614.021 749.254C621.277 743.834 631.553 745.324 636.972 752.581C642.392 759.838 640.902 770.114 633.645 775.533Z" fill="#FFA361"/>
<path d="M272.717 584.558C265.46 589.977 255.184 588.487 249.765 581.231C244.346 573.974 245.836 563.698 253.092 558.279C260.349 552.859 270.625 554.349 276.044 561.606C281.464 568.863 279.974 579.139 272.717 584.558Z" fill="#FFA361"/>
<path d="M190.531 461.509L179.119 462.723L190.521 465.245L187.972 470.218L193.052 466.496L194.28 481.441L196.855 466.507L201.915 470.256L199.394 465.268L208.273 462.802L199.404 461.533L201.956 455.314L196.875 459.036L194.381 444.088L193.073 459.026L188.012 455.277L190.531 461.509Z" fill="#FFA361"/>
<path d="M727.48 472.799L171.159 704.607M1139.66 684.198C971.944 809.441 734.455 775.013 609.211 607.299C483.968 439.586 518.396 202.097 686.11 76.8536C853.823 -48.3901 1091.31 -13.9616 1216.56 153.752C1341.8 321.465 1307.37 558.954 1139.66 684.198ZM1195.53 716.382C1045.15 828.68 832.209 797.81 719.911 647.433C607.613 497.055 638.483 284.115 788.861 171.817C939.238 59.5189 1152.18 90.3887 1264.48 240.766C1376.77 391.144 1345.9 604.085 1195.53 716.382ZM601.649 915.405C433.935 1040.65 198.033 1008.34 74.7463 843.252C-48.5405 678.159 -12.5256 442.794 155.188 317.551C322.901 192.307 558.803 224.611 682.09 389.704C805.377 554.797 769.362 790.161 601.649 915.405ZM530.171 943.778C427.164 1020.7 282.279 1000.86 206.561 899.468C130.843 798.074 152.964 653.52 255.971 576.598C358.978 499.675 503.863 519.513 579.581 620.907C655.299 722.301 633.177 866.855 530.171 943.778ZM649.377 132.72C642.12 138.139 631.844 136.649 626.425 129.393C621.005 122.136 622.495 111.86 629.752 106.441C637.009 101.021 647.285 102.511 652.704 109.768C658.123 117.025 656.633 127.301 649.377 132.72ZM668.989 513.765C661.732 519.185 651.456 517.695 646.037 510.438C640.617 503.181 642.107 492.905 649.364 487.486C656.621 482.067 666.897 483.557 672.316 490.813C677.735 498.07 676.245 508.346 668.989 513.765ZM633.645 775.533C626.388 780.952 616.112 779.462 610.693 772.206C605.274 764.949 606.764 754.673 614.021 749.254C621.277 743.834 631.553 745.324 636.972 752.581C642.392 759.838 640.902 770.114 633.645 775.533ZM272.717 584.558C265.46 589.977 255.184 588.487 249.765 581.231C244.346 573.974 245.836 563.698 253.092 558.279C260.349 552.859 270.625 554.349 276.044 561.606C281.464 568.863 279.974 579.139 272.717 584.558ZM179.119 462.723L190.531 461.509L188.012 455.277L193.073 459.026L194.381 444.088L196.875 459.036L201.956 455.314L199.404 461.533L208.273 462.802L199.394 465.268L201.915 470.256L196.855 466.507L194.28 481.441L193.052 466.496L187.972 470.218L190.521 465.245L179.119 462.723Z" stroke="#FFA361" stroke-width="3"/>
</svg>
