<svg width="1617" height="1176" viewBox="0 0 1617 1176" fill="none" xmlns="http://www.w3.org/2000/svg">
<path d="M833.929 110.182C1000.86 -15.1826 1237.82 18.5152 1363.18 185.448C1488.54 352.381 1454.85 589.336 1287.91 714.7C1120.98 840.064 884.026 806.366 758.662 639.433C633.298 472.5 666.996 235.546 833.929 110.182Z" stroke="#FFA361" stroke-width="2"/>
<circle cx="1140.4" cy="475.8" r="338.827" transform="rotate(53.094 1140.4 475.8)" stroke="#FFA361" stroke-width="2"/>
<path d="M829.354 422.843C952.745 587.149 917.476 821.986 750.531 947.359C583.586 1072.73 348.228 1041.13 224.836 876.827C101.445 712.521 136.714 477.685 303.659 352.311C470.604 226.938 705.963 258.537 829.354 422.843Z" stroke="#FFA361" stroke-width="2"/>
<path d="M727.469 654.322C803.12 755.058 781.499 899.047 679.131 975.925C576.762 1052.8 432.453 1033.42 356.802 932.688C281.151 831.952 302.772 687.962 405.141 611.085C507.51 534.207 651.818 553.586 727.469 654.322Z" stroke="#FFA361" stroke-width="2"/>
<circle cx="786.899" cy="152.234" r="15.8992" transform="rotate(53.094 786.899 152.234)" fill="#FFA361" stroke="#FFA361"/>
<circle cx="807.539" cy="533.226" r="15.8992" transform="rotate(53.094 807.539 533.226)" fill="#FFA361" stroke="#FFA361"/>
<circle cx="772.903" cy="795.088" r="15.8992" transform="rotate(53.094 772.903 795.088)" fill="#FFA361" stroke="#FFA361"/>
<circle cx="411.461" cy="605.088" r="15.8992" transform="rotate(53.094 411.461 605.088)" fill="#FFA361" stroke="#FFA361"/>
<path d="M875.768 504.214L320.075 737.524" stroke="#FFA361" stroke-width="2"/>
<path d="M338.791 495.374L327.383 496.619L338.791 499.109L336.256 504.09L341.326 500.355L342.594 515.296L345.129 500.355L350.199 504.09L347.664 499.109L356.537 496.619L347.664 495.374L350.199 489.148L345.129 492.884L342.594 477.942L341.326 492.884L336.256 489.148L338.791 495.374Z" fill="#FFA361" stroke="#FFA361"/>
</svg>
