<svg width="1617" height="1603" viewBox="0 0 1617 1603" fill="none" xmlns="http://www.w3.org/2000/svg">
<circle cx="999.411" cy="568.267" r="414" transform="rotate(30 999.411 568.267)" stroke="#1060BE" stroke-opacity="0.26" stroke-width="4"/>
<circle cx="1106.94" cy="598.018" r="371" transform="rotate(30 1106.94 598.018)" stroke="#1060BE" stroke-opacity="0.26" stroke-width="4"/>
<path d="M769.637 679.248C964.516 791.761 1029.88 1043.49 915.543 1241.53C801.205 1439.57 550.516 1508.83 355.637 1396.32C160.759 1283.8 95.3942 1032.07 209.732 834.032C324.07 635.993 574.759 566.734 769.637 679.248Z" stroke="#1060BE" stroke-opacity="0.26" stroke-width="4"/>
<path d="M766.417 956.826C885.725 1025.71 925.757 1179.84 855.74 1301.11C785.723 1422.39 632.225 1464.78 512.917 1395.9C393.608 1327.02 353.576 1172.89 423.593 1051.61C493.61 930.34 647.108 887.943 766.417 956.826Z" stroke="#1060BE" stroke-opacity="0.26" stroke-width="4"/>
<circle cx="795.585" cy="799.306" r="18" transform="rotate(30 795.585 799.306)" fill="#D9D9D9" fill-opacity="0.8"/>
<circle cx="795.585" cy="799.306" r="16" transform="rotate(30 795.585 799.306)" stroke="#1060BE" stroke-opacity="0.26" stroke-width="4"/>
<circle cx="873.352" cy="1078.61" r="18" transform="rotate(30 873.352 1078.61)" fill="#D9D9D9" fill-opacity="0.8"/>
<circle cx="873.352" cy="1078.61" r="16" transform="rotate(30 873.352 1078.61)" stroke="#1060BE" stroke-opacity="0.26" stroke-width="4"/>
<circle cx="426.612" cy="1042.39" r="18" transform="rotate(30 426.612 1042.39)" fill="#D9D9D9" fill-opacity="0.8"/>
<circle cx="426.612" cy="1042.39" r="16" transform="rotate(30 426.612 1042.39)" stroke="#1060BE" stroke-opacity="0.26" stroke-width="4"/>
<path d="M851.972 740.641L391.359 1215.45" stroke="#1060BE" stroke-opacity="0.26" stroke-width="4"/>
</svg>
