<svg width="495" height="246" viewBox="0 0 495 246" fill="none" xmlns="http://www.w3.org/2000/svg">
<path d="M452.721 199.188L452.54 199.554L452.863 199.805L472.808 215.278L450.166 204.116L449.8 203.935L449.55 204.258L434.076 224.203L445.239 201.561L445.42 201.195L445.097 200.945L425.151 185.47L447.793 196.634L448.16 196.814L448.41 196.492L463.884 176.546L452.721 199.188Z" fill="#FFB766" stroke="#FFB766"/>
<g filter="url(#filter0_f_461_1585)">
<path d="M11.0436 5.7998C8.32086 14.6488 6.66712 23.8404 6.08487 33.1239C-0.0170135 123.576 93.3731 176.734 171.454 193.38C253.416 212.346 337.775 212.079 421.239 206.563C430.382 205.926 439.714 205.189 449.238 204.348C449.085 202.689 448.931 201.029 448.777 199.37C439.29 200.29 429.994 201.108 420.887 201.826C337.746 208.072 253.705 209.08 172.023 190.946C94.1968 175.01 1.16144 123.368 6.33445 33.1384C6.83239 23.8694 8.40064 14.6729 11.0436 5.7998Z" fill="#FFB766"/>
</g>
<defs>
<filter id="filter0_f_461_1585" x="0.000781059" y="-0.000195503" width="455.038" height="215.627" filterUnits="userSpaceOnUse" color-interpolation-filters="sRGB">
<feFlood flood-opacity="0" result="BackgroundImageFix"/>
<feBlend mode="normal" in="SourceGraphic" in2="BackgroundImageFix" result="shape"/>
<feGaussianBlur stdDeviation="2.9" result="effect1_foregroundBlur_461_1585"/>
</filter>
</defs>
</svg>
