<svg width="216" height="495" viewBox="0 0 216 495" fill="none" xmlns="http://www.w3.org/2000/svg">
<path d="M147.277 34.1553L147.242 34.5621L147.634 34.6779L170.231 41.3639L146.752 39.3414L146.345 39.3063L146.23 39.6979L139.544 62.2956L141.566 38.8164L141.601 38.4096L141.21 38.2939L118.611 31.6077L142.091 33.6304L142.498 33.6655L142.614 33.2739L149.3 10.6753L147.277 34.1553Z" fill="#FFB766" stroke="#FFB766"/>
<g filter="url(#filter0_f_463_1589)">
<path d="M4.40234 490C4.44379 480.56 5.2169 471.048 6.80341 461.691C15.8429 393.576 78.8928 347.468 143.012 334.859C200.342 326.264 218.502 258.833 208.833 209.209C201.318 157.105 181.846 107.676 158.468 60.8967C154.181 52.4402 149.616 43.9251 144.948 35.7507C143.505 36.5836 142.061 37.4164 140.617 38.2493C145.312 46.3029 149.913 54.7095 154.241 63.0635C177.855 109.279 197.626 158.277 205.491 209.676C215.278 258.881 198.571 323.807 142.554 332.913C78.1214 346.122 14.934 393.356 6.55675 461.65C5.05013 471.035 4.36048 480.56 4.40234 490Z" fill="#FFB766"/>
</g>
<defs>
<filter id="filter0_f_463_1589" x="0.00039053" y="31.3505" width="215.695" height="463.05" filterUnits="userSpaceOnUse" color-interpolation-filters="sRGB">
<feFlood flood-opacity="0" result="BackgroundImageFix"/>
<feBlend mode="normal" in="SourceGraphic" in2="BackgroundImageFix" result="shape"/>
<feGaussianBlur stdDeviation="2.2" result="effect1_foregroundBlur_463_1589"/>
</filter>
</defs>
</svg>
