<svg width="456" height="193" viewBox="0 0 456 193" fill="none" xmlns="http://www.w3.org/2000/svg">
<path d="M419.37 31.3467L419.526 31.7259L419.933 31.6702L442.801 28.5034L421.103 35.7266L420.717 35.8545L420.786 36.2541L424.383 57.2532L416.178 37.3282L416.022 36.949L415.616 37.0056L392.746 40.1717L414.446 32.9492L414.831 32.8204L414.762 32.4208L411.165 11.422L419.37 31.3467Z" fill="#FFB766" stroke="#FFB766"/>
<g filter="url(#filter0_f_462_1587)">
<path d="M5.80078 187C5.80078 187 5.80078 187 5.80078 187C9.53783 179.78 13.8068 172.748 18.4005 165.98C50.6026 116.629 113.647 71.6888 172.212 100.22C250.169 132.283 355.807 128.936 412.383 58.1032C416.819 50.9186 420.004 42.8317 421.274 34.3619C419.625 34.1203 417.976 33.8787 416.327 33.6371C415.243 41.3942 412.404 48.8714 408.326 55.6332C355.673 123.606 250.285 129.555 173.061 98.2786C112.854 69.8564 49.8554 116.235 18.193 165.841C13.6635 172.663 9.46368 179.742 5.80078 187Z" fill="#FFB766"/>
</g>
<defs>
<filter id="filter0_f_462_1587" x="0.000781059" y="27.8372" width="427.073" height="164.962" filterUnits="userSpaceOnUse" color-interpolation-filters="sRGB">
<feFlood flood-opacity="0" result="BackgroundImageFix"/>
<feBlend mode="normal" in="SourceGraphic" in2="BackgroundImageFix" result="shape"/>
<feGaussianBlur stdDeviation="2.9" result="effect1_foregroundBlur_462_1587"/>
</filter>
</defs>
</svg>
