<svg width="405" height="213" viewBox="0 0 405 213" fill="none" xmlns="http://www.w3.org/2000/svg">
<path d="M51.6609 163.239L51.5105 163.619L51.8524 163.842L74.7819 178.819L49.3161 168.741L48.9365 168.591L48.7133 168.932L33.7356 191.861L43.8143 166.396L43.9647 166.016L43.6228 165.793L20.6938 150.816L46.1591 160.894L46.5387 161.045L46.7619 160.703L61.7387 137.773L51.6609 163.239Z" fill="#FFB766" stroke="#FFB766"/>
<g filter="url(#filter0_f_461_1586)">
<path d="M367.598 5.7998C373.082 11.0985 378.178 16.8546 382.636 23.0288C392.607 36.8175 399.919 53.6716 398.054 70.7962C396.338 88.0312 384.841 102.411 371.161 112.45C343.011 132.583 309.394 141.233 275.744 148.113C208.346 160.869 139.219 162.819 70.9076 162.413C63.3534 162.344 55.6375 162.231 47.7579 162.072C47.7331 163.739 47.7083 165.405 47.6835 167.072C55.5828 167.148 63.3178 167.178 70.8907 167.163C139.373 166.818 208.659 164.117 276.237 150.564C309.979 143.276 343.695 134.24 371.988 113.548C385.731 103.241 397.315 88.4314 398.862 70.8792C400.558 53.4444 392.973 36.5906 382.838 22.8814C378.302 16.7428 373.139 11.0383 367.598 5.7998Z" fill="#FFB766"/>
</g>
<defs>
<filter id="filter0_f_461_1586" x="41.8836" y="-0.000195503" width="363.016" height="172.967" filterUnits="userSpaceOnUse" color-interpolation-filters="sRGB">
<feFlood flood-opacity="0" result="BackgroundImageFix"/>
<feBlend mode="normal" in="SourceGraphic" in2="BackgroundImageFix" result="shape"/>
<feGaussianBlur stdDeviation="2.9" result="effect1_foregroundBlur_461_1586"/>
</filter>
</defs>
</svg>
