<svg width="50" height="40" viewBox="0 0 50 40" fill="none" xmlns="http://www.w3.org/2000/svg">
<path fill-rule="evenodd" clip-rule="evenodd" d="M20.7302 1.55942C20.1005 2.91045 19.8193 4.80467 19.8141 7.72967C19.8101 9.96398 20.0021 12.3056 21.2167 14.5131C21.8554 15.674 24.6781 18.884 29.1047 19.8626C31.0401 20.2906 33.076 20.8716 33.6297 21.1541C34.1828 21.4361 34.6354 21.5528 34.6354 21.4128C34.6354 21.0156 22.6521 0.586736 22.1161 0.0698583C21.8245 -0.211172 21.2844 0.369755 20.7302 1.55942ZM16.2609 19.0881C15.7969 22.7082 14.8922 23.8527 11.8833 24.6218L9.375 25.2633L11.3714 25.6109C14.3687 26.1322 15.8167 27.8094 16.3089 31.3298L16.7229 34.2935L17.125 31.4221C17.6911 27.3795 19.0349 26.0145 22.7375 25.7221C28.2734 25.2846 31.8682 28.3323 31.3922 33.0592C31.1198 35.7587 29.9042 37.5313 27.3437 38.9618L25.5208 39.9806L37.7604 39.9901L50 40L48.1771 38.9563C45.35 37.3387 44.1448 36.1167 40.8167 31.4956C35.8229 24.5622 31.6531 22.6188 24.0396 23.6754C20.2021 24.2082 19.8906 24.1819 18.9 23.2375C18.3203 22.6844 17.5661 20.9242 17.224 19.3254L16.6026 16.4188L16.2609 19.0881ZM7.62135 33.0522C6.75625 35.4504 5.10573 37.223 2.34375 38.7205L0 39.9916L8.33333 39.9742L16.6667 39.9573L14.237 38.7513C11.675 37.4792 10.2214 35.8973 8.99271 33.0438L8.24791 31.3144L7.62135 33.0522Z" fill="#1C1A5B"/>
</svg>
